<mxfile host="app.diagrams.net" modified="2022-03-14T12:28:57.710Z" agent="5.0 (X11)" etag="utQeC71n9HuwIYvgfY8f" version="17.1.2" type="github">
  <diagram id="R1Xw__vpXuRPRKRZPnrQ" name="Page-1">
    <mxGraphModel dx="567" dy="292" grid="1" gridSize="10" guides="1" tooltips="1" connect="1" arrows="1" fold="1" page="1" pageScale="1" pageWidth="850" pageHeight="1100" math="0" shadow="0">
      <root>
        <mxCell id="0" />
        <mxCell id="1" parent="0" />
        <mxCell id="DvLsfiminBwmlt_PKPQQ-2" value="RAM&lt;br&gt;&lt;br&gt;&lt;br&gt;&lt;br&gt;&lt;br&gt;&lt;div&gt;&lt;br&gt;&lt;/div&gt;&lt;div&gt;&lt;br&gt;&lt;/div&gt;&lt;div&gt;&lt;br&gt;&lt;/div&gt;&lt;div&gt;&lt;br&gt;&lt;/div&gt;&lt;div&gt;&lt;br&gt;&lt;/div&gt;&lt;div&gt;&lt;br&gt;&lt;/div&gt;" style="rounded=0;whiteSpace=wrap;html=1;fontFamily=palatino;" parent="1" vertex="1">
          <mxGeometry x="280" y="120" width="80" height="160" as="geometry" />
        </mxCell>
        <mxCell id="DvLsfiminBwmlt_PKPQQ-1" value="&lt;div&gt;CPU&lt;/div&gt;&lt;div&gt;&lt;br&gt;&lt;/div&gt;&lt;div&gt;&lt;br&gt;&lt;/div&gt;&lt;div&gt;&lt;br&gt;&lt;/div&gt;&lt;div&gt;&lt;br&gt;&lt;/div&gt;&lt;div&gt;&lt;br&gt;&lt;/div&gt;&lt;div&gt;&lt;br&gt;&lt;/div&gt;&lt;div&gt;&lt;br&gt;&lt;/div&gt;&lt;div&gt;&lt;br&gt;&lt;/div&gt;&lt;div&gt;&lt;br&gt;&lt;/div&gt;&lt;div&gt;&lt;br&gt;&lt;/div&gt;" style="rounded=0;whiteSpace=wrap;html=1;fontFamily=palatino;" parent="1" vertex="1">
          <mxGeometry x="130" y="120" width="110" height="160" as="geometry" />
        </mxCell>
        <mxCell id="DvLsfiminBwmlt_PKPQQ-4" value="Data" style="edgeStyle=orthogonalEdgeStyle;rounded=0;orthogonalLoop=1;jettySize=auto;html=1;exitX=1;exitY=0.75;exitDx=0;exitDy=0;entryX=0;entryY=0.75;entryDx=0;entryDy=0;startArrow=classic;startFill=1;fontFamily=palatino;" parent="1" source="FMfkOAx7GD2p_hkdqqN1-1" target="DvLsfiminBwmlt_PKPQQ-2" edge="1">
          <mxGeometry x="-0.1726" y="-7" relative="1" as="geometry">
            <Array as="points">
              <mxPoint x="260" y="263" />
              <mxPoint x="260" y="240" />
            </Array>
            <mxPoint x="-7" y="7" as="offset" />
          </mxGeometry>
        </mxCell>
        <mxCell id="DvLsfiminBwmlt_PKPQQ-6" value="Core" style="whiteSpace=wrap;html=1;aspect=fixed;fontFamily=palatino;" parent="1" vertex="1">
          <mxGeometry x="140" y="140" width="40" height="40" as="geometry" />
        </mxCell>
        <mxCell id="FMfkOAx7GD2p_hkdqqN1-1" value="MMU" style="rounded=0;whiteSpace=wrap;html=1;fontFamily=palatino;" vertex="1" parent="1">
          <mxGeometry x="140" y="240" width="90" height="30" as="geometry" />
        </mxCell>
        <mxCell id="FMfkOAx7GD2p_hkdqqN1-2" value="Core" style="whiteSpace=wrap;html=1;aspect=fixed;fontFamily=palatino;" vertex="1" parent="1">
          <mxGeometry x="190" y="140" width="40" height="40" as="geometry" />
        </mxCell>
        <mxCell id="FMfkOAx7GD2p_hkdqqN1-3" value="Core" style="whiteSpace=wrap;html=1;aspect=fixed;fontFamily=palatino;" vertex="1" parent="1">
          <mxGeometry x="140" y="190" width="40" height="40" as="geometry" />
        </mxCell>
        <mxCell id="FMfkOAx7GD2p_hkdqqN1-4" value="Core" style="whiteSpace=wrap;html=1;aspect=fixed;fontFamily=palatino;" vertex="1" parent="1">
          <mxGeometry x="190" y="190" width="40" height="40" as="geometry" />
        </mxCell>
        <mxCell id="DvLsfiminBwmlt_PKPQQ-3" value="Addr" style="edgeStyle=orthogonalEdgeStyle;rounded=0;orthogonalLoop=1;jettySize=auto;html=1;exitX=0;exitY=0.25;exitDx=0;exitDy=0;entryX=1;entryY=0.25;entryDx=0;entryDy=0;fontFamily=palatino;startArrow=classic;startFill=1;endArrow=none;endFill=0;" parent="1" source="DvLsfiminBwmlt_PKPQQ-2" target="FMfkOAx7GD2p_hkdqqN1-1" edge="1">
          <mxGeometry relative="1" as="geometry" />
        </mxCell>
      </root>
    </mxGraphModel>
  </diagram>
</mxfile>
